<svg width="21" height="19" viewBox="0 0 21 19" fill="none" xmlns="http://www.w3.org/2000/svg">
<path d="M19.875 4.03125H6.59375C6.38655 4.03125 6.18784 3.94894 6.04132 3.80243C5.89481 3.65591 5.8125 3.4572 5.8125 3.25C5.8125 3.0428 5.89481 2.84409 6.04132 2.69757C6.18784 2.55106 6.38655 2.46875 6.59375 2.46875H19.875C20.0822 2.46875 20.2809 2.55106 20.4274 2.69757C20.5739 2.84409 20.6562 3.0428 20.6562 3.25C20.6562 3.4572 20.5739 3.65591 20.4274 3.80243C20.2809 3.94894 20.0822 4.03125 19.875 4.03125Z" fill="white"/>
<path d="M3.46875 4.03125H1.125C0.9178 4.03125 0.719086 3.94894 0.572573 3.80243C0.42606 3.65591 0.34375 3.4572 0.34375 3.25C0.34375 3.0428 0.42606 2.84409 0.572573 2.69757C0.719086 2.55106 0.9178 2.46875 1.125 2.46875H3.46875C3.67595 2.46875 3.87466 2.55106 4.02118 2.69757C4.16769 2.84409 4.25 3.0428 4.25 3.25C4.25 3.4572 4.16769 3.65591 4.02118 3.80243C3.87466 3.94894 3.67595 4.03125 3.46875 4.03125Z" fill="white"/>
<path d="M14.4062 10.2812H1.125C0.9178 10.2812 0.719086 10.1989 0.572573 10.0524C0.42606 9.90592 0.34375 9.7072 0.34375 9.5C0.34375 9.2928 0.42606 9.09409 0.572573 8.94757C0.719086 8.80106 0.9178 8.71875 1.125 8.71875H14.4062C14.6135 8.71875 14.8122 8.80106 14.9587 8.94757C15.1052 9.09409 15.1875 9.2928 15.1875 9.5C15.1875 9.7072 15.1052 9.90592 14.9587 10.0524C14.8122 10.1989 14.6135 10.2812 14.4062 10.2812Z" fill="white"/>
<path d="M6.59375 16.5312H1.125C0.9178 16.5312 0.719086 16.4489 0.572573 16.3024C0.42606 16.1559 0.34375 15.9572 0.34375 15.75C0.34375 15.5428 0.42606 15.3441 0.572573 15.1976C0.719086 15.0511 0.9178 14.9688 1.125 14.9688H6.59375C6.80095 14.9688 6.99966 15.0511 7.14618 15.1976C7.29269 15.3441 7.375 15.5428 7.375 15.75C7.375 15.9572 7.29269 16.1559 7.14618 16.3024C6.99966 16.4489 6.80095 16.5312 6.59375 16.5312Z" fill="white"/>
<path d="M5.03125 5.59375C4.5677 5.59375 4.11456 5.45629 3.72913 5.19876C3.34371 4.94122 3.0433 4.57518 2.86591 4.14692C2.68852 3.71865 2.6421 3.2474 2.73254 2.79276C2.82297 2.33812 3.04619 1.9205 3.37397 1.59272C3.70175 1.26494 4.11937 1.04172 4.57401 0.951286C5.02865 0.860851 5.4999 0.907266 5.92817 1.08466C6.35643 1.26205 6.72247 1.56246 6.98001 1.94788C7.23754 2.33331 7.375 2.78645 7.375 3.25C7.375 3.8716 7.12807 4.46774 6.68853 4.90728C6.24899 5.34682 5.65285 5.59375 5.03125 5.59375ZM5.03125 2.46875C4.87673 2.46875 4.72569 2.51457 4.59721 2.60042C4.46874 2.68626 4.3686 2.80827 4.30947 2.95103C4.25034 3.09378 4.23487 3.25087 4.26501 3.40242C4.29516 3.55396 4.36956 3.69317 4.47882 3.80243C4.58808 3.91169 4.72729 3.98609 4.87884 4.01624C5.03038 4.04638 5.18747 4.03091 5.33022 3.97178C5.47298 3.91265 5.59499 3.81252 5.68084 3.68404C5.76668 3.55556 5.8125 3.40452 5.8125 3.25C5.8125 3.0428 5.73019 2.84409 5.58368 2.69757C5.43717 2.55106 5.23845 2.46875 5.03125 2.46875Z" fill="white"/>
<path d="M15.9688 11.8438C15.5052 11.8438 15.0521 11.7063 14.6666 11.4488C14.2812 11.1912 13.9808 10.8252 13.8034 10.3969C13.626 9.96865 13.5796 9.4974 13.67 9.04276C13.7605 8.58812 13.9837 8.1705 14.3115 7.84272C14.6392 7.51494 15.0569 7.29172 15.5115 7.20129C15.9662 7.11085 16.4374 7.15727 16.8657 7.33466C17.2939 7.51205 17.66 7.81246 17.9175 8.19788C18.175 8.58331 18.3125 9.03645 18.3125 9.5C18.3125 10.1216 18.0656 10.7177 17.626 11.1573C17.1865 11.5968 16.5904 11.8438 15.9688 11.8438ZM15.9688 8.71875C15.8142 8.71875 15.6632 8.76457 15.5347 8.85042C15.4062 8.93626 15.3061 9.05828 15.247 9.20103C15.1878 9.34378 15.1724 9.50087 15.2025 9.65242C15.2327 9.80396 15.3071 9.94317 15.4163 10.0524C15.5256 10.1617 15.6648 10.2361 15.8163 10.2662C15.9679 10.2964 16.125 10.2809 16.2677 10.2218C16.4105 10.1627 16.5325 10.0625 16.6183 9.93404C16.7042 9.80557 16.75 9.65452 16.75 9.5C16.75 9.2928 16.6677 9.09409 16.5212 8.94757C16.3747 8.80106 16.176 8.71875 15.9688 8.71875Z" fill="white"/>
<path d="M8.15625 18.0938C7.6927 18.0938 7.23956 17.9563 6.85413 17.6988C6.46871 17.4412 6.1683 17.0752 5.99091 16.6469C5.81352 16.2187 5.7671 15.7474 5.85754 15.2928C5.94797 14.8381 6.17119 14.4205 6.49897 14.0927C6.82675 13.7649 7.24437 13.5417 7.69901 13.4513C8.15365 13.3609 8.6249 13.4073 9.05317 13.5847C9.48143 13.7621 9.84747 14.0625 10.105 14.4479C10.3625 14.8333 10.5 15.2865 10.5 15.75C10.5 16.3716 10.2531 16.9677 9.81353 17.4073C9.374 17.8468 8.77785 18.0938 8.15625 18.0938ZM8.15625 14.9688C8.00173 14.9688 7.85069 15.0146 7.72221 15.1004C7.59374 15.1863 7.4936 15.3083 7.43447 15.451C7.37534 15.5938 7.35987 15.7509 7.39001 15.9024C7.42016 16.054 7.49456 16.1932 7.60382 16.3024C7.71308 16.4117 7.85229 16.4861 8.00384 16.5162C8.15539 16.5464 8.31247 16.5309 8.45522 16.4718C8.59798 16.4127 8.71999 16.3125 8.80584 16.184C8.89168 16.0556 8.9375 15.9045 8.9375 15.75C8.9375 15.5428 8.85519 15.3441 8.70868 15.1976C8.56217 15.0511 8.36345 14.9688 8.15625 14.9688Z" fill="white"/>
<path d="M19.875 10.2812H17.5312C17.324 10.2812 17.1253 10.1989 16.9788 10.0524C16.8323 9.90592 16.75 9.7072 16.75 9.5C16.75 9.2928 16.8323 9.09409 16.9788 8.94757C17.1253 8.80106 17.324 8.71875 17.5312 8.71875H19.875C20.0822 8.71875 20.2809 8.80106 20.4274 8.94757C20.5739 9.09409 20.6562 9.2928 20.6562 9.5C20.6562 9.7072 20.5739 9.90592 20.4274 10.0524C20.2809 10.1989 20.0822 10.2812 19.875 10.2812Z" fill="white"/>
<path d="M19.875 16.5312H9.71875C9.51155 16.5312 9.31284 16.4489 9.16632 16.3024C9.01981 16.1559 8.9375 15.9572 8.9375 15.75C8.9375 15.5428 9.01981 15.3441 9.16632 15.1976C9.31284 15.0511 9.51155 14.9688 9.71875 14.9688H19.875C20.0822 14.9688 20.2809 15.0511 20.4274 15.1976C20.5739 15.3441 20.6562 15.5428 20.6562 15.75C20.6562 15.9572 20.5739 16.1559 20.4274 16.3024C20.2809 16.4489 20.0822 16.5312 19.875 16.5312Z" fill="white"/>
</svg>
